<svg xmlns="http://www.w3.org/2000/svg" width="1920" height="1080"><path d="M1368,1275L1031,1300L1536,1295Z" fill="#307baf" stroke="#307baf" stroke-width="1.51"/><path d="M-39,-250L403,-247L1752,-243Z" fill="#cbead1" stroke="#cbead1" stroke-width="1.51"/><path d="M1077,-227L1635,-230L1752,-243Z" fill="#9fc6d7" stroke="#9fc6d7" stroke-width="1.51"/><path d="M756,-234L1077,-227L1752,-243Z" fill="#acd9de" stroke="#acd9de" stroke-width="1.51"/><path d="M403,-247L756,-234L1752,-243Z" fill="#b9e3d8" stroke="#b9e3d8" stroke-width="1.51"/><path d="M1536,1295L1031,1300L1756,1327Z" fill="#2772a9" stroke="#2772a9" stroke-width="1.51"/><path d="M1031,1300L791,1324L1756,1327Z" fill="#3a7fad" stroke="#3a7fad" stroke-width="1.51"/><path d="M1752,-243L1910,-189L2109,-242Z" fill="#91a8c7" stroke="#91a8c7" stroke-width="1.51"/><path d="M1756,1327L791,1324L2113,1339Z" fill="#1e69a3" stroke="#1e69a3" stroke-width="1.51"/><path d="M1924,1328L1756,1327L2113,1339Z" fill="#0a5295" stroke="#0a5295" stroke-width="1.51"/><path d="M1974,140L2111,250L2120,114Z" fill="#7896a9" stroke="#7896a9" stroke-width="1.51"/><path d="M1971,-69L1974,140L2120,114Z" fill="#809cb2" stroke="#809cb2" stroke-width="1.51"/><path d="M1971,-69L2120,114L2132,-70Z" fill="#8299b1" stroke="#8299b1" stroke-width="1.51"/><path d="M2109,-242L1971,-69L2132,-70Z" fill="#879cb7" stroke="#879cb7" stroke-width="1.51"/><path d="M1907,681L2046,785L2139,690Z" fill="#3882b2" stroke="#3882b2" stroke-width="1.51"/><path d="M1927,575L1907,681L2139,690Z" fill="#4389b3" stroke="#4389b3" stroke-width="1.51"/><path d="M2046,785L2048,996L2139,690Z" fill="#2c76ac" stroke="#2c76ac" stroke-width="1.51"/><path d="M2106,375L1942,387L2139,531Z" fill="#5e8ea6" stroke="#5e8ea6" stroke-width="1.51"/><path d="M1942,387L1927,575L2139,531Z" fill="#568fad" stroke="#568fad" stroke-width="1.51"/><path d="M1927,575L2139,690L2139,531Z" fill="#4886ab" stroke="#4886ab" stroke-width="1.51"/><path d="M2120,114L2111,250L2139,531Z" fill="#6b8ea0" stroke="#6b8ea0" stroke-width="1.51"/><path d="M2111,250L2106,375L2139,531Z" fill="#638ba1" stroke="#638ba1" stroke-width="1.51"/><path d="M2132,-70L2120,114L2139,531Z" fill="#7591a4" stroke="#7591a4" stroke-width="1.51"/><path d="M1953,1188L2113,1339L2140,1146Z" fill="#095396" stroke="#095396" stroke-width="1.51"/><path d="M2048,996L1953,1188L2140,1146Z" fill="#105fa0" stroke="#105fa0" stroke-width="1.51"/><path d="M2139,690L2048,996L2140,1146Z" fill="#1f6aa3" stroke="#1f6aa3" stroke-width="1.51"/><path d="M2046,785L1937,834L2048,996Z" fill="#2777ae" stroke="#2777ae" stroke-width="1.51"/><path d="M1910,-189L1971,-69L2109,-242Z" fill="#8ca2be" stroke="#8ca2be" stroke-width="1.51"/><path d="M1953,1188L1924,1328L2113,1339Z" fill="#0a5294" stroke="#0a5294" stroke-width="1.51"/><path d="M1958,249L2106,375L2111,250Z" fill="#6e93a5" stroke="#6e93a5" stroke-width="1.51"/><path d="M1974,140L1958,249L2111,250Z" fill="#7698ab" stroke="#7698ab" stroke-width="1.51"/><path d="M1958,249L1942,387L2106,375Z" fill="#6b96a7" stroke="#6b96a7" stroke-width="1.51"/><path d="M1077,-227L1485,-184L1635,-230Z" fill="#a2ccd9" stroke="#a2ccd9" stroke-width="1.51"/><path d="M1649,1299L1536,1295L1756,1327Z" fill="#1965a3" stroke="#1965a3" stroke-width="1.51"/><path d="M1907,681L1937,834L2046,785Z" fill="#3283b7" stroke="#3283b7" stroke-width="1.51"/><path d="M1897,994L1953,1188L2048,996Z" fill="#1569a9" stroke="#1569a9" stroke-width="1.51"/><path d="M1937,834L1897,994L2048,996Z" fill="#1f74ae" stroke="#1f74ae" stroke-width="1.51"/><path d="M1826,955L1897,994L1937,834Z" fill="#217ab4" stroke="#217ab4" stroke-width="1.51"/><path d="M1813,357L1927,575L1942,387Z" fill="#6199b3" stroke="#6199b3" stroke-width="1.51"/><path d="M1897,994L1745,1195L1953,1188Z" fill="#0d6aad" stroke="#0d6aad" stroke-width="1.51"/><path d="M1813,357L1942,387L1958,249Z" fill="#6e9daf" stroke="#6e9daf" stroke-width="1.51"/><path d="M1910,-189L1805,-61L1971,-69Z" fill="#8ca8c3" stroke="#8ca8c3" stroke-width="1.51"/><path d="M1805,-61L1837,143L1971,-69Z" fill="#87a8bf" stroke="#87a8bf" stroke-width="1.51"/><path d="M1971,-69L1837,143L1974,140Z" fill="#82a3b8" stroke="#82a3b8" stroke-width="1.51"/><path d="M1837,143L1958,249L1974,140Z" fill="#7ca0b3" stroke="#7ca0b3" stroke-width="1.51"/><path d="M1813,357L1731,528L1927,575Z" fill="#5c9cb8" stroke="#5c9cb8" stroke-width="1.51"/><path d="M1745,1195L1924,1328L1953,1188Z" fill="#095fa2" stroke="#095fa2" stroke-width="1.51"/><path d="M1837,143L1792,190L1958,249Z" fill="#7ca5b7" stroke="#7ca5b7" stroke-width="1.51"/><path d="M1792,190L1813,357L1958,249Z" fill="#75a3b4" stroke="#75a3b4" stroke-width="1.51"/><path d="M1732,707L1754,867L1907,681Z" fill="#3690c1" stroke="#3690c1" stroke-width="1.51"/><path d="M1745,1195L1756,1327L1924,1328Z" fill="#0e5fa0" stroke="#0e5fa0" stroke-width="1.51"/><path d="M1907,681L1754,867L1937,834Z" fill="#3088bd" stroke="#3088bd" stroke-width="1.51"/><path d="M1754,867L1826,955L1937,834Z" fill="#2781b9" stroke="#2781b9" stroke-width="1.51"/><path d="M1826,955L1745,1195L1897,994Z" fill="#1873b2" stroke="#1873b2" stroke-width="1.51"/><path d="M1731,528L1907,681L1927,575Z" fill="#4c96ba" stroke="#4c96ba" stroke-width="1.51"/><path d="M1731,528L1732,707L1907,681Z" fill="#4897be" stroke="#4897be" stroke-width="1.51"/><path d="M1752,-243L1805,-61L1910,-189Z" fill="#91aeca" stroke="#91aeca" stroke-width="1.51"/><path d="M1670,990L1745,1195L1826,955Z" fill="#1d78b5" stroke="#1d78b5" stroke-width="1.51"/><path d="M1670,990L1676,1176L1745,1195Z" fill="#1a75b2" stroke="#1a75b2" stroke-width="1.51"/><path d="M1752,-243L1632,-103L1805,-61Z" fill="#92b4cb" stroke="#92b4cb" stroke-width="1.51"/><path d="M1792,190L1626,291L1813,357Z" fill="#77aab7" stroke="#77aab7" stroke-width="1.51"/><path d="M1805,-61L1586,120L1837,143Z" fill="#88afc0" stroke="#88afc0" stroke-width="1.51"/><path d="M1586,120L1792,190L1837,143Z" fill="#83adbc" stroke="#83adbc" stroke-width="1.51"/><path d="M1632,-103L1586,120L1805,-61Z" fill="#8eb5c6" stroke="#8eb5c6" stroke-width="1.51"/><path d="M1643,357L1731,528L1813,357Z" fill="#68a5b8" stroke="#68a5b8" stroke-width="1.51"/><path d="M1626,291L1643,357L1813,357Z" fill="#73abb7" stroke="#73abb7" stroke-width="1.51"/><path d="M1754,867L1670,990L1826,955Z" fill="#2582ba" stroke="#2582ba" stroke-width="1.51"/><path d="M386,1289L118,1335L791,1324Z" fill="#7794a7" stroke="#7794a7" stroke-width="1.51"/><path d="M1077,-227L1148,-191L1485,-184Z" fill="#a9d6dd" stroke="#a9d6dd" stroke-width="1.51"/><path d="M1635,-230L1632,-103L1752,-243Z" fill="#97b9cf" stroke="#97b9cf" stroke-width="1.51"/><path d="M1732,707L1626,785L1754,867Z" fill="#3693c2" stroke="#3693c2" stroke-width="1.51"/><path d="M1586,120L1626,291L1792,190Z" fill="#80b1bd" stroke="#80b1bd" stroke-width="1.51"/><path d="M1148,-191L1288,-157L1485,-184Z" fill="#a4d1db" stroke="#a4d1db" stroke-width="1.51"/><path d="M1585,584L1668,714L1731,528Z" fill="#4fa1c1" stroke="#4fa1c1" stroke-width="1.51"/><path d="M1668,714L1626,785L1732,707Z" fill="#3c99c5" stroke="#3c99c5" stroke-width="1.51"/><path d="M1731,528L1668,714L1732,707Z" fill="#499cc1" stroke="#499cc1" stroke-width="1.51"/><path d="M1676,1176L1649,1299L1745,1195Z" fill="#176baa" stroke="#176baa" stroke-width="1.51"/><path d="M1745,1195L1649,1299L1756,1327Z" fill="#1565a4" stroke="#1565a4" stroke-width="1.51"/><path d="M1626,785L1670,990L1754,867Z" fill="#2e8bbe" stroke="#2e8bbe" stroke-width="1.51"/><path d="M1643,357L1585,584L1731,528Z" fill="#5fa7bd" stroke="#5fa7bd" stroke-width="1.51"/><path d="M1626,785L1536,954L1670,990Z" fill="#2d8dbf" stroke="#2d8dbf" stroke-width="1.51"/><path d="M1521,796L1536,954L1626,785Z" fill="#3696c3" stroke="#3696c3" stroke-width="1.51"/><path d="M1531,-66L1586,120L1632,-103Z" fill="#90bbc9" stroke="#90bbc9" stroke-width="1.51"/><path d="M1478,522L1585,584L1643,357Z" fill="#62adbf" stroke="#62adbf" stroke-width="1.51"/><path d="M1479,367L1478,522L1643,357Z" fill="#6eb2be" stroke="#6eb2be" stroke-width="1.51"/><path d="M1536,954L1471,1127L1670,990Z" fill="#2785bb" stroke="#2785bb" stroke-width="1.51"/><path d="M1536,1295L1649,1299L1676,1176Z" fill="#1b6da8" stroke="#1b6da8" stroke-width="1.51"/><path d="M1471,1127L1536,1295L1676,1176Z" fill="#1e76b0" stroke="#1e76b0" stroke-width="1.51"/><path d="M1670,990L1471,1127L1676,1176Z" fill="#207cb6" stroke="#207cb6" stroke-width="1.51"/><path d="M862,1308L791,1324L1031,1300Z" fill="#568aa7" stroke="#568aa7" stroke-width="1.51"/><path d="M1585,584L1473,656L1668,714Z" fill="#4ca4c5" stroke="#4ca4c5" stroke-width="1.51"/><path d="M1473,656L1626,785L1668,714Z" fill="#429fc7" stroke="#429fc7" stroke-width="1.51"/><path d="M1473,656L1521,796L1626,785Z" fill="#3fa1c9" stroke="#3fa1c9" stroke-width="1.51"/><path d="M1586,120L1459,280L1626,291Z" fill="#80b7bf" stroke="#80b7bf" stroke-width="1.51"/><path d="M1485,-184L1632,-103L1635,-230Z" fill="#98bed1" stroke="#98bed1" stroke-width="1.51"/><path d="M1531,-66L1452,50L1586,120Z" fill="#90bfc9" stroke="#90bfc9" stroke-width="1.51"/><path d="M1485,-184L1531,-66L1632,-103Z" fill="#96bfd0" stroke="#96bfd0" stroke-width="1.51"/><path d="M1626,291L1479,367L1643,357Z" fill="#75b2ba" stroke="#75b2ba" stroke-width="1.51"/><path d="M1459,280L1479,367L1626,291Z" fill="#7ab6bd" stroke="#7ab6bd" stroke-width="1.51"/><path d="M1452,50L1459,280L1586,120Z" fill="#8abdc3" stroke="#8abdc3" stroke-width="1.51"/><path d="M1478,522L1473,656L1585,584Z" fill="#57acc5" stroke="#57acc5" stroke-width="1.51"/><path d="M1297,1039L1471,1127L1536,954Z" fill="#2f8cbe" stroke="#2f8cbe" stroke-width="1.51"/><path d="M1365,894L1297,1039L1536,954Z" fill="#3595c3" stroke="#3595c3" stroke-width="1.51"/><path d="M1521,796L1365,894L1536,954Z" fill="#3898c5" stroke="#3898c5" stroke-width="1.51"/><path d="M1471,1127L1368,1275L1536,1295Z" fill="#2678b0" stroke="#2678b0" stroke-width="1.51"/><path d="M1452,50L1333,264L1459,280Z" fill="#89c2c5" stroke="#89c2c5" stroke-width="1.51"/><path d="M1473,656L1348,733L1521,796Z" fill="#47a7cc" stroke="#47a7cc" stroke-width="1.51"/><path d="M1287,-5L1452,50L1531,-66Z" fill="#96c6ce" stroke="#96c6ce" stroke-width="1.51"/><path d="M1485,-184L1288,-157L1531,-66Z" fill="#9cc7d4" stroke="#9cc7d4" stroke-width="1.51"/><path d="M1288,-157L1287,-5L1531,-66Z" fill="#9ccbd3" stroke="#9ccbd3" stroke-width="1.51"/><path d="M1348,733L1365,894L1521,796Z" fill="#42a3ca" stroke="#42a3ca" stroke-width="1.51"/><path d="M1150,1236L1031,1300L1368,1275Z" fill="#3c84b1" stroke="#3c84b1" stroke-width="1.51"/><path d="M1311,68L1333,264L1452,50Z" fill="#92c7c9" stroke="#92c7c9" stroke-width="1.51"/><path d="M1297,1039L1319,1117L1471,1127Z" fill="#318cbf" stroke="#318cbf" stroke-width="1.51"/><path d="M1319,1117L1368,1275L1471,1127Z" fill="#2c83ba" stroke="#2c83ba" stroke-width="1.51"/><path d="M1287,382L1284,524L1478,522Z" fill="#6dbcc6" stroke="#6dbcc6" stroke-width="1.51"/><path d="M1284,524L1473,656L1478,522Z" fill="#5eb4c7" stroke="#5eb4c7" stroke-width="1.51"/><path d="M1287,382L1478,522L1479,367Z" fill="#71bac3" stroke="#71bac3" stroke-width="1.51"/><path d="M1284,524L1348,733L1473,656Z" fill="#57b2cb" stroke="#57b2cb" stroke-width="1.51"/><path d="M1459,280L1333,264L1479,367Z" fill="#7fbdc0" stroke="#7fbdc0" stroke-width="1.51"/><path d="M1333,264L1287,382L1479,367Z" fill="#7ec0c1" stroke="#7ec0c1" stroke-width="1.51"/><path d="M1287,-5L1311,68L1452,50Z" fill="#97cacf" stroke="#97cacf" stroke-width="1.51"/><path d="M1311,68L1170,140L1333,264Z" fill="#93cccb" stroke="#93cccb" stroke-width="1.51"/><path d="M1284,524L1181,666L1348,733Z" fill="#5cb9cf" stroke="#5cb9cf" stroke-width="1.51"/><path d="M1160,942L1297,1039L1365,894Z" fill="#3d9ec7" stroke="#3d9ec7" stroke-width="1.51"/><path d="M1348,733L1226,794L1365,894Z" fill="#47a9ce" stroke="#47a9ce" stroke-width="1.51"/><path d="M1319,1117L1234,1174L1368,1275Z" fill="#3187bb" stroke="#3187bb" stroke-width="1.51"/><path d="M1234,1174L1150,1236L1368,1275Z" fill="#3586b8" stroke="#3586b8" stroke-width="1.51"/><path d="M1226,794L1160,942L1365,894Z" fill="#45a7cd" stroke="#45a7cd" stroke-width="1.51"/><path d="M1170,140L1200,292L1333,264Z" fill="#8eccc8" stroke="#8eccc8" stroke-width="1.51"/><path d="M1181,666L1226,794L1348,733Z" fill="#51b4d3" stroke="#51b4d3" stroke-width="1.51"/><path d="M1181,-62L1287,-5L1288,-157Z" fill="#a1d3d7" stroke="#a1d3d7" stroke-width="1.51"/><path d="M1200,292L1287,382L1333,264Z" fill="#84c7c5" stroke="#84c7c5" stroke-width="1.51"/><path d="M1297,1039L1234,1174L1319,1117Z" fill="#368fc1" stroke="#368fc1" stroke-width="1.51"/><path d="M1143,491L1284,524L1287,382Z" fill="#73c3c9" stroke="#73c3c9" stroke-width="1.51"/><path d="M1134,441L1143,491L1287,382Z" fill="#7ac6c7" stroke="#7ac6c7" stroke-width="1.51"/><path d="M1287,-5L1170,140L1311,68Z" fill="#9ad0d0" stroke="#9ad0d0" stroke-width="1.51"/><path d="M1181,-62L1170,140L1287,-5Z" fill="#9ed3d1" stroke="#9ed3d1" stroke-width="1.51"/><path d="M1160,942L1234,1174L1297,1039Z" fill="#3d97c4" stroke="#3d97c4" stroke-width="1.51"/><path d="M756,-234L851,-201L1077,-227Z" fill="#bde5d5" stroke="#bde5d5" stroke-width="1.51"/><path d="M1143,491L1181,666L1284,524Z" fill="#69c0cb" stroke="#69c0cb" stroke-width="1.51"/><path d="M1148,-191L1181,-62L1288,-157Z" fill="#a6d6d9" stroke="#a6d6d9" stroke-width="1.51"/><path d="M1200,292L1134,441L1287,382Z" fill="#81c8c4" stroke="#81c8c4" stroke-width="1.51"/><path d="M1160,942L1035,1021L1234,1174Z" fill="#479cc2" stroke="#479cc2" stroke-width="1.51"/><path d="M1058,99L1170,140L1181,-62Z" fill="#a0d5cd" stroke="#a0d5cd" stroke-width="1.51"/><path d="M1143,491L1072,524L1181,666Z" fill="#6ec3ca" stroke="#6ec3ca" stroke-width="1.51"/><path d="M1019,789L1160,942L1226,794Z" fill="#53afcb" stroke="#53afcb" stroke-width="1.51"/><path d="M1181,666L1061,703L1226,794Z" fill="#5bb9d0" stroke="#5bb9d0" stroke-width="1.51"/><path d="M1017,1136L1150,1236L1234,1174Z" fill="#438fba" stroke="#438fba" stroke-width="1.51"/><path d="M1035,1021L1017,1136L1234,1174Z" fill="#4997be" stroke="#4997be" stroke-width="1.51"/><path d="M1170,140L1037,218L1200,292Z" fill="#95d1c6" stroke="#95d1c6" stroke-width="1.51"/><path d="M1061,703L1019,789L1226,794Z" fill="#5bb8ce" stroke="#5bb8ce" stroke-width="1.51"/><path d="M1000,358L1134,441L1200,292Z" fill="#88cdc2" stroke="#88cdc2" stroke-width="1.51"/><path d="M1037,218L1000,358L1200,292Z" fill="#91d1c1" stroke="#91d1c1" stroke-width="1.51"/><path d="M1148,-191L981,-110L1181,-62Z" fill="#abdad5" stroke="#abdad5" stroke-width="1.51"/><path d="M981,-110L1058,99L1181,-62Z" fill="#a8d9d0" stroke="#a8d9d0" stroke-width="1.51"/><path d="M1072,524L1061,703L1181,666Z" fill="#69c0cb" stroke="#69c0cb" stroke-width="1.51"/><path d="M1058,99L1037,218L1170,140Z" fill="#9dd5c7" stroke="#9dd5c7" stroke-width="1.51"/><path d="M1077,-227L981,-110L1148,-191Z" fill="#b0ddd8" stroke="#b0ddd8" stroke-width="1.51"/><path d="M1019,789L1035,1021L1160,942Z" fill="#54abc6" stroke="#54abc6" stroke-width="1.51"/><path d="M1017,1136L1031,1300L1150,1236Z" fill="#488db4" stroke="#488db4" stroke-width="1.51"/><path d="M1134,441L1072,524L1143,491Z" fill="#78c7c6" stroke="#78c7c6" stroke-width="1.51"/><path d="M1019,789L909,869L1035,1021Z" fill="#5cb0c5" stroke="#5cb0c5" stroke-width="1.51"/><path d="M1000,358L1072,524L1134,441Z" fill="#81cbc4" stroke="#81cbc4" stroke-width="1.51"/><path d="M1017,1136L926,1188L1031,1300Z" fill="#4f92b5" stroke="#4f92b5" stroke-width="1.51"/><path d="M909,869L901,977L1035,1021Z" fill="#5cabc1" stroke="#5cabc1" stroke-width="1.51"/><path d="M981,-110L884,-23L1058,99Z" fill="#acddcd" stroke="#acddcd" stroke-width="1.51"/><path d="M1000,358L865,484L1072,524Z" fill="#84cec2" stroke="#84cec2" stroke-width="1.51"/><path d="M897,691L1061,703L1072,524Z" fill="#6fc4c9" stroke="#6fc4c9" stroke-width="1.51"/><path d="M865,484L897,691L1072,524Z" fill="#7acbc5" stroke="#7acbc5" stroke-width="1.51"/><path d="M851,-201L981,-110L1077,-227Z" fill="#b5e1d5" stroke="#b5e1d5" stroke-width="1.51"/><path d="M916,236L1000,358L1037,218Z" fill="#97d5c0" stroke="#97d5c0" stroke-width="1.51"/><path d="M916,236L1037,218L1058,99Z" fill="#9fd7c4" stroke="#9fd7c4" stroke-width="1.51"/><path d="M836,142L916,236L1058,99Z" fill="#a5dbc3" stroke="#a5dbc3" stroke-width="1.51"/><path d="M897,691L1019,789L1061,703Z" fill="#67bfcc" stroke="#67bfcc" stroke-width="1.51"/><path d="M884,-23L836,142L1058,99Z" fill="#abddc7" stroke="#abddc7" stroke-width="1.51"/><path d="M901,977L1017,1136L1035,1021Z" fill="#55a2be" stroke="#55a2be" stroke-width="1.51"/><path d="M901,977L926,1188L1017,1136Z" fill="#569ebb" stroke="#569ebb" stroke-width="1.51"/><path d="M926,1188L862,1308L1031,1300Z" fill="#528dad" stroke="#528dad" stroke-width="1.51"/><path d="M897,691L909,869L1019,789Z" fill="#67bcc9" stroke="#67bcc9" stroke-width="1.51"/><path d="M916,236L870,337L1000,358Z" fill="#97d6bd" stroke="#97d6bd" stroke-width="1.51"/><path d="M870,337L865,484L1000,358Z" fill="#90d3be" stroke="#90d3be" stroke-width="1.51"/><path d="M546,1256L386,1289L791,1324Z" fill="#6f94a6" stroke="#6f94a6" stroke-width="1.51"/><path d="M901,977L775,1089L926,1188Z" fill="#5fa2b9" stroke="#5fa2b9" stroke-width="1.51"/><path d="M851,-201L884,-23L981,-110Z" fill="#b6e2cf" stroke="#b6e2cf" stroke-width="1.51"/><path d="M865,484L733,642L897,691Z" fill="#80cbc4" stroke="#80cbc4" stroke-width="1.51"/><path d="M770,1015L775,1089L901,977Z" fill="#66a8bb" stroke="#66a8bb" stroke-width="1.51"/><path d="M897,691L729,864L909,869Z" fill="#6fbcc6" stroke="#6fbcc6" stroke-width="1.51"/><path d="M775,1089L862,1308L926,1188Z" fill="#5c97b2" stroke="#5c97b2" stroke-width="1.51"/><path d="M775,1089L791,1324L862,1308Z" fill="#5f93ad" stroke="#5f93ad" stroke-width="1.51"/><path d="M729,864L770,1015L901,977Z" fill="#6ab0be" stroke="#6ab0be" stroke-width="1.51"/><path d="M729,864L901,977L909,869Z" fill="#69b3c1" stroke="#69b3c1" stroke-width="1.51"/><path d="M716,229L870,337L916,236Z" fill="#a2dabc" stroke="#a2dabc" stroke-width="1.51"/><path d="M836,142L716,229L916,236Z" fill="#a9ddbe" stroke="#a9ddbe" stroke-width="1.51"/><path d="M719,84L836,142L884,-23Z" fill="#b3e1c4" stroke="#b3e1c4" stroke-width="1.51"/><path d="M733,642L729,864L897,691Z" fill="#79c5c7" stroke="#79c5c7" stroke-width="1.51"/><path d="M716,426L865,484L870,337Z" fill="#95d5bc" stroke="#95d5bc" stroke-width="1.51"/><path d="M851,-201L692,-9L884,-23Z" fill="#bae4cc" stroke="#bae4cc" stroke-width="1.51"/><path d="M756,-234L692,-9L851,-201Z" fill="#c1e7ce" stroke="#c1e7ce" stroke-width="1.51"/><path d="M692,-9L719,84L884,-23Z" fill="#b9e3c5" stroke="#b9e3c5" stroke-width="1.51"/><path d="M679,501L733,642L865,484Z" fill="#8bd1bf" stroke="#8bd1bf" stroke-width="1.51"/><path d="M716,229L716,426L870,337Z" fill="#a1dab8" stroke="#a1dab8" stroke-width="1.51"/><path d="M716,426L679,501L865,484Z" fill="#94d5bd" stroke="#94d5bd" stroke-width="1.51"/><path d="M-39,-250L161,-211L403,-247Z" fill="#e5f5df" stroke="#e5f5df" stroke-width="1.51"/><path d="M403,-247L588,-169L756,-234Z" fill="#d0edd1" stroke="#d0edd1" stroke-width="1.51"/><path d="M775,1089L578,1142L791,1324Z" fill="#6a9cb0" stroke="#6a9cb0" stroke-width="1.51"/><path d="M719,84L716,229L836,142Z" fill="#b2e0bf" stroke="#b2e0bf" stroke-width="1.51"/><path d="M716,229L608,342L716,426Z" fill="#a7dcb6" stroke="#a7dcb6" stroke-width="1.51"/><path d="M591,-116L692,-9L756,-234Z" fill="#c5e9ca" stroke="#c5e9ca" stroke-width="1.51"/><path d="M588,-169L591,-116L756,-234Z" fill="#cbebcd" stroke="#cbebcd" stroke-width="1.51"/><path d="M578,1142L546,1256L791,1324Z" fill="#6e98aa" stroke="#6e98aa" stroke-width="1.51"/><path d="M550,665L535,834L729,864Z" fill="#84c5c4" stroke="#84c5c4" stroke-width="1.51"/><path d="M550,665L729,864L733,642Z" fill="#84c9c4" stroke="#84c9c4" stroke-width="1.51"/><path d="M729,864L556,968L770,1015Z" fill="#75b3bb" stroke="#75b3bb" stroke-width="1.51"/><path d="M770,1015L578,1142L775,1089Z" fill="#6ea6b6" stroke="#6ea6b6" stroke-width="1.51"/><path d="M556,968L578,1142L770,1015Z" fill="#75abb7" stroke="#75abb7" stroke-width="1.51"/><path d="M555,271L716,229L719,84Z" fill="#b4e2ba" stroke="#b4e2ba" stroke-width="1.51"/><path d="M541,40L555,271L719,84Z" fill="#bde6be" stroke="#bde6be" stroke-width="1.51"/><path d="M679,501L550,665L733,642Z" fill="#8fd0bf" stroke="#8fd0bf" stroke-width="1.51"/><path d="M535,834L556,968L729,864Z" fill="#7dbbbf" stroke="#7dbbbf" stroke-width="1.51"/><path d="M599,483L550,665L679,501Z" fill="#95d5bf" stroke="#95d5bf" stroke-width="1.51"/><path d="M555,271L608,342L716,229Z" fill="#afe0b8" stroke="#afe0b8" stroke-width="1.51"/><path d="M692,-9L541,40L719,84Z" fill="#bfe6c1" stroke="#bfe6c1" stroke-width="1.51"/><path d="M599,483L679,501L716,426Z" fill="#9ad7ba" stroke="#9ad7ba" stroke-width="1.51"/><path d="M608,342L599,483L716,426Z" fill="#a1dab9" stroke="#a1dab9" stroke-width="1.51"/><path d="M591,-116L541,40L692,-9Z" fill="#c5e8c7" stroke="#c5e8c7" stroke-width="1.51"/><path d="M541,40L428,37L555,271Z" fill="#c4e8c1" stroke="#c4e8c1" stroke-width="1.51"/><path d="M428,37L388,268L555,271Z" fill="#c1e6c0" stroke="#c1e6c0" stroke-width="1.51"/><path d="M556,968L390,1031L578,1142Z" fill="#7daebb" stroke="#7daebb" stroke-width="1.51"/><path d="M424,-112L541,40L591,-116Z" fill="#ccebcb" stroke="#ccebcb" stroke-width="1.51"/><path d="M423,504L550,665L599,483Z" fill="#9bd7c1" stroke="#9bd7c1" stroke-width="1.51"/><path d="M479,395L599,483L608,342Z" fill="#a7dcba" stroke="#a7dcba" stroke-width="1.51"/><path d="M555,271L479,395L608,342Z" fill="#afe0b8" stroke="#afe0b8" stroke-width="1.51"/><path d="M479,395L423,504L599,483Z" fill="#a5dbbe" stroke="#a5dbbe" stroke-width="1.51"/><path d="M390,1031L458,1184L578,1142Z" fill="#7ca8b8" stroke="#7ca8b8" stroke-width="1.51"/><path d="M458,1184L546,1256L578,1142Z" fill="#769fb2" stroke="#769fb2" stroke-width="1.51"/><path d="M588,-169L424,-112L591,-116Z" fill="#cfecce" stroke="#cfecce" stroke-width="1.51"/><path d="M393,704L535,834L550,665Z" fill="#8eccc9" stroke="#8eccc9" stroke-width="1.51"/><path d="M535,834L443,883L556,968Z" fill="#84bcc1" stroke="#84bcc1" stroke-width="1.51"/><path d="M403,-247L424,-112L588,-169Z" fill="#d5efd2" stroke="#d5efd2" stroke-width="1.51"/><path d="M424,-112L428,37L541,40Z" fill="#cdebc9" stroke="#cdebc9" stroke-width="1.51"/><path d="M423,504L393,704L550,665Z" fill="#9ad4c5" stroke="#9ad4c5" stroke-width="1.51"/><path d="M388,268L479,395L555,271Z" fill="#b5e3bb" stroke="#b5e3bb" stroke-width="1.51"/><path d="M443,883L390,1031L556,968Z" fill="#83b7bf" stroke="#83b7bf" stroke-width="1.51"/><path d="M393,704L443,883L535,834Z" fill="#8cc6c7" stroke="#8cc6c7" stroke-width="1.51"/><path d="M458,1184L386,1289L546,1256Z" fill="#789bae" stroke="#789bae" stroke-width="1.51"/><path d="M320,226L388,268L428,37Z" fill="#c7e9c2" stroke="#c7e9c2" stroke-width="1.51"/><path d="M393,704L309,832L443,883Z" fill="#91c8c9" stroke="#91c8c9" stroke-width="1.51"/><path d="M324,402L423,504L479,395Z" fill="#aedfbf" stroke="#aedfbf" stroke-width="1.51"/><path d="M388,268L324,402L479,395Z" fill="#b6e2bd" stroke="#b6e2bd" stroke-width="1.51"/><path d="M302,1253L118,1335L386,1289Z" fill="#7f99af" stroke="#7f99af" stroke-width="1.51"/><path d="M260,516L393,704L423,504Z" fill="#a4d9c6" stroke="#a4d9c6" stroke-width="1.51"/><path d="M403,-247L325,-180L424,-112Z" fill="#daf1d4" stroke="#daf1d4" stroke-width="1.51"/><path d="M256,55L320,226L428,37Z" fill="#ceecc7" stroke="#ceecc7" stroke-width="1.51"/><path d="M302,1253L386,1289L458,1184Z" fill="#7d9db0" stroke="#7d9db0" stroke-width="1.51"/><path d="M288,1142L302,1253L458,1184Z" fill="#81a3b7" stroke="#81a3b7" stroke-width="1.51"/><path d="M390,1031L288,1142L458,1184Z" fill="#82aabb" stroke="#82aabb" stroke-width="1.51"/><path d="M260,516L254,697L393,704Z" fill="#a1d6ca" stroke="#a1d6ca" stroke-width="1.51"/><path d="M424,-112L236,-31L428,37Z" fill="#d4eecd" stroke="#d4eecd" stroke-width="1.51"/><path d="M309,832L390,1031L443,883Z" fill="#8bbdc4" stroke="#8bbdc4" stroke-width="1.51"/><path d="M309,832L242,1016L390,1031Z" fill="#8bbac3" stroke="#8bbac3" stroke-width="1.51"/><path d="M325,-180L236,-31L424,-112Z" fill="#d9f0d2" stroke="#d9f0d2" stroke-width="1.51"/><path d="M236,-31L256,55L428,37Z" fill="#d3eecc" stroke="#d3eecc" stroke-width="1.51"/><path d="M161,-211L325,-180L403,-247Z" fill="#e0f3d9" stroke="#e0f3d9" stroke-width="1.51"/><path d="M324,402L260,516L423,504Z" fill="#aedec3" stroke="#aedec3" stroke-width="1.51"/><path d="M254,697L309,832L393,704Z" fill="#98cfce" stroke="#98cfce" stroke-width="1.51"/><path d="M320,226L324,402L388,268Z" fill="#bee5bf" stroke="#bee5bf" stroke-width="1.51"/><path d="M242,1016L288,1142L390,1031Z" fill="#87b0c0" stroke="#87b0c0" stroke-width="1.51"/><path d="M189,895L242,1016L309,832Z" fill="#90bfc8" stroke="#90bfc8" stroke-width="1.51"/><path d="M256,55L149,226L320,226Z" fill="#cdebc8" stroke="#cdebc8" stroke-width="1.51"/><path d="M320,226L149,226L324,402Z" fill="#c2e7c2" stroke="#c2e7c2" stroke-width="1.51"/><path d="M149,226L104,427L324,402Z" fill="#bee6c3" stroke="#bee6c3" stroke-width="1.51"/><path d="M161,-211L236,-31L325,-180Z" fill="#def2d7" stroke="#def2d7" stroke-width="1.51"/><path d="M104,427L260,516L324,402Z" fill="#b3e1c6" stroke="#b3e1c6" stroke-width="1.51"/><path d="M161,-211L127,-81L236,-31Z" fill="#def2d8" stroke="#def2d8" stroke-width="1.51"/><path d="M128,644L254,697L260,516Z" fill="#a5d8cd" stroke="#a5d8cd" stroke-width="1.51"/><path d="M288,1142L85,1155L302,1253Z" fill="#85a6bc" stroke="#85a6bc" stroke-width="1.51"/><path d="M254,697L189,895L309,832Z" fill="#96cace" stroke="#96cace" stroke-width="1.51"/><path d="M85,1155L118,1335L302,1253Z" fill="#849fb7" stroke="#849fb7" stroke-width="1.51"/><path d="M242,1016L85,1155L288,1142Z" fill="#89adc2" stroke="#89adc2" stroke-width="1.51"/><path d="M26,742L30,824L189,895Z" fill="#9bcbd3" stroke="#9bcbd3" stroke-width="1.51"/><path d="M26,742L189,895L254,697Z" fill="#9bced3" stroke="#9bced3" stroke-width="1.51"/><path d="M128,644L26,742L254,697Z" fill="#a2d5d2" stroke="#a2d5d2" stroke-width="1.51"/><path d="M79,117L149,226L256,55Z" fill="#d2eecc" stroke="#d2eecc" stroke-width="1.51"/><path d="M104,427L120,510L260,516Z" fill="#b2e1ca" stroke="#b2e1ca" stroke-width="1.51"/><path d="M120,510L128,644L260,516Z" fill="#abddcc" stroke="#abddcc" stroke-width="1.51"/><path d="M189,895L105,956L242,1016Z" fill="#90bcc9" stroke="#90bcc9" stroke-width="1.51"/><path d="M236,-31L79,117L256,55Z" fill="#d5efcf" stroke="#d5efcf" stroke-width="1.51"/><path d="M127,-81L79,117L236,-31Z" fill="#d9f1d3" stroke="#d9f1d3" stroke-width="1.51"/><path d="M105,956L85,1155L242,1016Z" fill="#8db4c6" stroke="#8db4c6" stroke-width="1.51"/><path d="M-4,386L104,427L149,226Z" fill="#c2e7c7" stroke="#c2e7c7" stroke-width="1.51"/><path d="M30,824L105,956L189,895Z" fill="#96c3ce" stroke="#96c3ce" stroke-width="1.51"/><path d="M4,1142L85,1155L105,956Z" fill="#8eb1c8" stroke="#8eb1c8" stroke-width="1.51"/><path d="M85,1155L-19,1236L118,1335Z" fill="#87a1bb" stroke="#87a1bb" stroke-width="1.51"/><path d="M120,510L40,570L128,644Z" fill="#adddd0" stroke="#adddd0" stroke-width="1.51"/><path d="M11,221L-4,386L149,226Z" fill="#caeaca" stroke="#caeaca" stroke-width="1.51"/><path d="M-39,-250L127,-81L161,-211Z" fill="#e5f5df" stroke="#e5f5df" stroke-width="1.51"/><path d="M-61,-86L79,117L127,-81Z" fill="#def2d8" stroke="#def2d8" stroke-width="1.51"/><path d="M-39,-250L-61,-86L127,-81Z" fill="#e6f6e0" stroke="#e6f6e0" stroke-width="1.51"/><path d="M79,117L11,221L149,226Z" fill="#d1edcd" stroke="#d1edcd" stroke-width="1.51"/><path d="M-61,-86L-42,112L79,117Z" fill="#ddf2d6" stroke="#ddf2d6" stroke-width="1.51"/><path d="M-29,956L4,1142L105,956Z" fill="#92b8cb" stroke="#92b8cb" stroke-width="1.51"/><path d="M-19,1236L-196,1343L118,1335Z" fill="#889bb7" stroke="#889bb7" stroke-width="1.51"/><path d="M40,570L26,742L128,644Z" fill="#a7d8d4" stroke="#a7d8d4" stroke-width="1.51"/><path d="M30,824L-29,956L105,956Z" fill="#97c3d0" stroke="#97c3d0" stroke-width="1.51"/><path d="M104,427L40,570L120,510Z" fill="#b3e1cd" stroke="#b3e1cd" stroke-width="1.51"/><path d="M-4,386L40,570L104,427Z" fill="#b9e3cd" stroke="#b9e3cd" stroke-width="1.51"/><path d="M-42,112L11,221L79,117Z" fill="#d6efd0" stroke="#d6efd0" stroke-width="1.51"/><path d="M4,1142L-19,1236L85,1155Z" fill="#8ca9c4" stroke="#8ca9c4" stroke-width="1.51"/><path d="M-61,-86L-111,75L-42,112Z" fill="#e0f3d9" stroke="#e0f3d9" stroke-width="1.51"/><path d="M-124,353L-4,386L11,221Z" fill="#c9eacc" stroke="#c9eacc" stroke-width="1.51"/><path d="M-4,386L-200,552L40,570Z" fill="#b8e3d2" stroke="#b8e3d2" stroke-width="1.51"/><path d="M-172,678L26,742L40,570Z" fill="#aad9d8" stroke="#aad9d8" stroke-width="1.51"/><path d="M-200,552L-172,678L40,570Z" fill="#b2ded7" stroke="#b2ded7" stroke-width="1.51"/><path d="M-124,353L-200,552L-4,386Z" fill="#c1e7d1" stroke="#c1e7d1" stroke-width="1.51"/><path d="M-29,956L-194,1115L4,1142Z" fill="#94b4cd" stroke="#94b4cd" stroke-width="1.51"/><path d="M-172,678L-138,784L26,742Z" fill="#a7d6dc" stroke="#a7d6dc" stroke-width="1.51"/><path d="M26,742L-138,784L30,824Z" fill="#a1d0d8" stroke="#a1d0d8" stroke-width="1.51"/><path d="M-138,784L-29,956L30,824Z" fill="#9dc9d5" stroke="#9dc9d5" stroke-width="1.51"/><path d="M-136,203L-124,353L11,221Z" fill="#d0edd0" stroke="#d0edd0" stroke-width="1.51"/><path d="M-212,1020L-194,1115L-29,956Z" fill="#98b9d1" stroke="#98b9d1" stroke-width="1.51"/><path d="M-42,112L-136,203L11,221Z" fill="#d6efd2" stroke="#d6efd2" stroke-width="1.51"/><path d="M-194,1115L-19,1236L4,1142Z" fill="#90acc8" stroke="#90acc8" stroke-width="1.51"/><path d="M-213,-169L-61,-86L-39,-250Z" fill="#ecf8e5" stroke="#ecf8e5" stroke-width="1.51"/><path d="M-194,1115L-196,1343L-19,1236Z" fill="#8fa5c3" stroke="#8fa5c3" stroke-width="1.51"/><path d="M-138,784L-212,1020L-29,956Z" fill="#9cc4d5" stroke="#9cc4d5" stroke-width="1.51"/><path d="M-216,-47L-111,75L-61,-86Z" fill="#e5f5de" stroke="#e5f5de" stroke-width="1.51"/><path d="M-111,75L-136,203L-42,112Z" fill="#dcf2d5" stroke="#dcf2d5" stroke-width="1.51"/><path d="M-213,-169L-216,-47L-61,-86Z" fill="#eaf7e4" stroke="#eaf7e4" stroke-width="1.51"/><path d="M-216,-47L-136,203L-111,75Z" fill="#e1f3da" stroke="#e1f3da" stroke-width="1.51"/><path d="M-136,203L-200,552L-124,353Z" fill="#c9ead1" stroke="#c9ead1" stroke-width="1.51"/><path d="M-172,678L-212,1020L-138,784Z" fill="#a4cedb" stroke="#a4cedb" stroke-width="1.51"/><path d="M-216,-47L-200,552L-136,203Z" fill="#d6efd4" stroke="#d6efd4" stroke-width="1.51"/><path d="M-200,552L-212,1020L-172,678Z" fill="#aad6e0" stroke="#aad6e0" stroke-width="1.51"/><path d="M-212,1020L-196,1343L-194,1115Z" fill="#95aecd" stroke="#95aecd" stroke-width="1.51"/><path d="M-216,-47L-212,1020L-200,552Z" fill="#bee5d8" stroke="#bee5d8" stroke-width="1.51"/></svg>